<svg width="140" height="26" viewBox="0 0 140 26" fill="none" xmlns="http://www.w3.org/2000/svg">
<path d="M55.0363 5.3913C54.644 5.3913 54.1396 5.4483 53.5792 5.5053C53.0187 5.5623 52.5143 5.6763 51.9538 5.8473C51.3934 6.0183 50.945 6.3033 50.4967 6.6453C50.2165 6.8733 49.9362 7.1583 49.7121 7.44331V6.0183H46.3494V23.7454H49.7681V13.9413C49.7681 13.1433 49.9362 12.4023 50.2165 11.7753C50.4967 11.1483 50.945 10.5783 51.3934 10.1793C51.8978 9.72332 52.4583 9.38132 53.1308 9.15331C53.8033 8.92531 54.4759 8.81131 55.1484 8.81131H56.9418L56.8858 5.3913H55.0363Z" fill="#2D217F"/>
<path d="M73.7544 12.9155C73.4741 12.9725 73.1939 13.0295 72.8576 13.0865C72.8576 11.7185 72.6335 10.5785 72.1851 9.6095C71.7928 8.6405 71.2323 7.8425 70.5598 7.21549C69.8873 6.58849 69.0466 6.13249 68.1499 5.84749C67.2532 5.56249 66.3004 5.44849 65.2355 5.44849C64.3388 5.44849 63.4982 5.56249 62.6575 5.84749C61.8168 6.13249 61.0882 6.47449 60.4157 6.98749C59.7432 7.5005 59.1827 8.1275 58.7904 8.9255C58.342 9.72351 58.1178 10.6355 58.0618 11.6615V11.8325H61.5366V11.6615C61.5366 11.1485 61.7047 10.6925 61.9289 10.3505C62.1531 10.0085 62.4893 9.6665 62.8256 9.4385C63.2179 9.2105 63.6102 9.0395 64.0586 8.9255C65.0114 8.6975 66.0762 8.6975 66.9729 8.9825C67.4213 9.1535 67.8697 9.3245 68.262 9.66651C68.6543 9.95151 68.9345 10.3505 69.1587 10.7495C69.3829 11.2055 69.495 11.7185 69.495 12.3455V12.8015C69.495 12.9155 69.495 13.0865 69.4389 13.2575C68.5422 12.9725 67.6455 12.8015 66.7488 12.6305C64.7311 12.3455 62.9937 12.3455 61.4805 12.7445C60.6959 12.9725 59.9673 13.3145 59.3508 13.7705C58.7343 14.2265 58.286 14.8535 57.9497 15.5945C57.6134 16.3355 57.4453 17.2475 57.4453 18.2165C57.4453 19.1855 57.6695 20.0976 58.0618 20.8386C58.4541 21.5796 59.0146 22.2066 59.6311 22.7196C60.3036 23.2326 61.0322 23.5746 61.8168 23.8596C62.6014 24.0876 63.4421 24.2586 64.2828 24.2586C65.2916 24.2586 66.2444 24.0876 67.1971 23.7456C68.0378 23.4606 68.7664 22.9476 69.3829 22.2636V23.8596H72.8576V23.0616C72.8576 22.6626 72.8576 22.0926 72.8576 21.4656C72.8576 20.7816 72.8576 20.0406 72.8576 19.1855V16.7345L74.9873 16.3925V12.8015L74.8192 12.8585C74.4829 12.7445 74.0906 12.8585 73.7544 12.9155ZM69.495 17.7605C69.495 18.0455 69.3268 18.3305 69.1026 18.6725C68.8224 19.0145 68.4861 19.3566 68.0938 19.6986C67.6455 20.0406 67.1411 20.2686 66.5806 20.4966C66.0202 20.7246 65.4597 20.8386 64.8432 20.8386C64.2828 20.8386 63.7784 20.7816 63.33 20.6106C62.8817 20.4966 62.4333 20.2686 62.097 20.0406C61.7608 19.8126 61.4805 19.5275 61.2564 19.2425C61.0322 18.9575 60.9761 18.6155 60.9761 18.2165C60.9761 17.7605 61.0882 17.3615 61.3124 17.0765C61.5366 16.7915 61.8729 16.5065 62.2091 16.3355C62.5454 16.1075 62.9938 15.9935 63.3861 15.9365C63.8344 15.8795 64.2267 15.8225 64.6191 15.8225C65.1235 15.8225 65.6279 15.8795 66.1323 15.9365C66.6927 16.0505 67.1971 16.1075 67.6455 16.2215C68.1499 16.3355 68.5422 16.4495 68.8785 16.5065C69.1587 16.5635 69.3268 16.6205 69.495 16.6205V17.7605Z" fill="#2D217F"/>
<path d="M100.601 7.44331C100.041 6.7023 99.3121 6.1893 98.4154 5.8473C97.5187 5.5053 96.5099 5.3913 95.2769 5.3913C95.1088 5.3913 94.8286 5.4483 94.3802 5.5053C93.9879 5.5623 93.5395 5.6763 93.0912 5.8473C92.6428 6.0183 92.1384 6.2463 91.69 6.5313C91.2977 6.8163 90.9054 7.1013 90.6252 7.50031C90.1208 6.8733 89.4482 6.4173 88.4955 6.0183C87.4867 5.6193 86.1416 5.3913 84.4603 5.3913C84.18 5.3913 83.8998 5.4483 83.4515 5.5053C83.0591 5.5623 82.6108 5.6763 82.1624 5.8473C81.7141 6.0183 81.3218 6.2463 80.8734 6.5883C80.5932 6.8163 80.369 7.0443 80.1448 7.38631V6.0183H76.7261V23.7454H80.1448V13.9413C80.1448 12.9153 80.2569 12.0033 80.5371 11.3763C80.8173 10.6923 81.1536 10.1793 81.5459 9.83732C81.9382 9.49532 82.4426 9.21031 82.9471 9.03931C83.5075 8.86831 84.0119 8.81131 84.5723 8.81131C85.357 8.86831 85.9735 9.03931 86.4218 9.32432C86.8702 9.60932 87.2065 10.0083 87.4306 10.4073C87.6548 10.8063 87.823 11.2623 87.879 11.7753C87.935 12.2883 87.9911 12.7443 87.9911 13.1433V23.7454H91.3538V13.1433C91.3538 12.2883 91.4659 11.6043 91.7461 11.0343C91.9703 10.4643 92.3065 10.0083 92.6988 9.72332C93.0912 9.38132 93.5395 9.15331 93.9879 9.03931C94.4362 8.92531 94.9406 8.81131 95.389 8.81131C96.1736 8.86831 96.7901 9.03931 97.2385 9.32432C97.6868 9.60932 98.0231 10.0083 98.2473 10.5213C98.4715 11.0343 98.6396 11.6043 98.6957 12.2313C98.7517 12.8583 98.8077 13.5993 98.8077 14.2833V23.6884H102.17V14.3973C102.17 12.8013 102.058 11.3763 101.778 10.2933C101.554 9.09631 101.162 8.18431 100.601 7.44331Z" fill="#2D217F"/>
<path d="M118.59 8.46849C117.862 7.61349 116.909 6.92949 115.844 6.41648C114.779 5.90348 113.49 5.61848 112.089 5.61848C111.528 5.61848 110.856 5.67548 110.183 5.73248C109.567 5.78948 109.119 5.96048 108.726 6.13148V0.944458H105.251V22.7186L105.364 22.7756C106.316 23.2316 107.269 23.5736 108.278 23.8016C109.287 24.0296 110.295 24.1436 111.248 24.1436C112.537 24.1436 113.714 23.9156 114.891 23.5166C116.068 23.1176 117.077 22.5476 117.974 21.7496C118.87 20.9515 119.599 19.9825 120.103 18.8425C120.608 17.7025 120.888 16.3345 120.888 14.7955C120.888 13.6555 120.72 12.5725 120.328 11.4895C119.879 10.2925 119.319 9.3235 118.59 8.46849ZM117.021 17.5885C116.685 18.2155 116.236 18.7855 115.676 19.2415C115.115 19.6975 114.499 19.9825 113.826 20.2105C112.649 20.5525 111.416 20.6095 110.127 20.3815C109.623 20.2675 109.175 20.1535 108.726 19.9825V9.7795C109.063 9.6085 109.455 9.4945 109.959 9.4375C110.52 9.3235 111.024 9.3235 111.36 9.3235C112.313 9.3235 113.21 9.4375 113.994 9.6655C114.779 9.8935 115.396 10.2355 115.956 10.6915C116.46 11.1475 116.909 11.7745 117.189 12.5155C117.469 13.2565 117.637 14.2255 117.637 15.3085C117.525 16.1635 117.357 16.9045 117.021 17.5885Z" fill="#2D217F"/>
<path d="M139.832 12.6858C139.44 12.7998 139.103 12.8568 138.711 12.9138C138.431 12.9708 138.151 13.0278 137.814 13.0848C137.814 11.7168 137.59 10.5768 137.142 9.6078C136.75 8.63879 136.189 7.84079 135.517 7.21379C134.844 6.58678 134.003 6.13078 133.107 5.84578C132.21 5.56078 131.257 5.44678 130.192 5.44678C129.296 5.44678 128.455 5.56078 127.614 5.84578C126.774 6.13078 126.045 6.47278 125.372 6.98578C124.7 7.49879 124.139 8.12579 123.747 8.92379C123.299 9.7218 123.075 10.6338 123.019 11.6598V11.8308H126.493V11.6598C126.493 11.1468 126.662 10.6908 126.886 10.3488C127.11 10.0068 127.446 9.6648 127.782 9.43679C128.175 9.20879 128.567 9.03779 129.015 8.92379C129.968 8.69579 131.033 8.69579 131.93 8.98079C132.378 9.15179 132.826 9.32279 133.219 9.6648C133.611 9.9498 133.891 10.3488 134.115 10.7478C134.34 11.2038 134.452 11.7168 134.452 12.3438V12.7998C134.452 12.9138 134.452 13.0848 134.396 13.2558C133.499 12.9708 132.602 12.7998 131.706 12.6288C129.688 12.3438 127.951 12.3438 126.437 12.7428C125.653 12.9708 124.924 13.3128 124.308 13.7688C123.691 14.2248 123.243 14.8518 122.907 15.5928C122.57 16.3338 122.402 17.2458 122.402 18.2148C122.402 19.1838 122.626 20.0958 123.019 20.8368C123.411 21.5779 123.971 22.2049 124.588 22.7179C125.26 23.2309 125.989 23.5729 126.774 23.8579C127.558 24.0859 128.399 24.2569 129.24 24.2569C130.248 24.2569 131.201 24.0859 132.154 23.7439C132.995 23.4589 133.723 22.9459 134.34 22.2619V23.8579H137.814V23.0599C137.814 22.6609 137.814 22.0909 137.814 21.4639C137.814 20.7798 137.814 20.0388 137.814 19.1838V16.7328L139.944 16.3908V12.7998L139.832 12.6858ZM134.452 17.7588C134.452 18.0438 134.284 18.3288 134.059 18.6708C133.779 19.0128 133.443 19.3548 133.051 19.6968C132.602 20.0388 132.098 20.2668 131.537 20.4948C130.977 20.7228 130.417 20.8368 129.8 20.8368C129.24 20.8368 128.735 20.7798 128.287 20.6088C127.838 20.4948 127.39 20.2668 127.054 20.0388C126.718 19.8108 126.437 19.5258 126.213 19.2408C125.989 18.9558 125.933 18.6138 125.933 18.2148C125.933 17.7588 126.045 17.3598 126.269 17.0748C126.493 16.7898 126.83 16.5048 127.166 16.3338C127.502 16.1058 127.951 15.9918 128.343 15.9348C128.791 15.8778 129.184 15.8208 129.576 15.8208C130.08 15.8208 130.585 15.8778 131.089 15.9348C131.649 16.0488 132.154 16.1058 132.602 16.2198C133.107 16.3338 133.499 16.4478 133.835 16.5048C134.115 16.5618 134.284 16.6188 134.452 16.6188V17.7588Z" fill="#2D217F"/>
<path d="M36.4291 16.6203C37.6061 16.6203 38.727 16.4493 39.7918 16.1643C40.8567 15.8793 41.7534 15.1953 42.482 14.2263C43.2106 13.2573 43.6029 12.2313 43.6029 11.1483C43.6029 10.1223 43.3226 9.15331 42.8182 8.29831C42.2578 7.44331 41.5853 6.8163 40.8006 6.3033C39.7358 5.7333 38.5028 5.3913 37.2138 5.3913C35.9808 5.3913 34.8599 5.5623 33.8511 5.9613C32.8423 6.3603 31.9455 6.8733 31.217 7.55731C30.4884 8.24131 29.8719 9.03931 29.4235 10.0083C28.9752 10.9203 28.751 11.9463 28.6389 13.0293C28.2466 13.0293 26.7334 13.2573 26.3411 13.3713C26.3411 13.3713 26.3411 16.5633 26.3411 16.8483C26.7894 16.7913 28.1345 16.3923 28.5829 16.4493C28.5829 16.4493 28.5829 18.1024 29.3114 19.6984C29.7598 20.6104 30.3202 21.4654 31.0488 22.0924C31.7774 22.7194 32.6181 23.2324 33.5708 23.5744C34.5236 23.9164 35.5885 24.0874 36.7094 24.0874C38.1105 24.0874 39.3435 23.8594 40.4083 23.4034C41.4732 22.9474 42.4259 22.4344 43.2666 21.8074L43.3226 21.7504V18.1024L43.0985 18.2734C42.6501 18.6154 42.1457 18.9004 41.6413 19.1854C41.1929 19.4704 40.6885 19.6984 40.1841 19.9264C39.6797 20.1544 39.1193 20.2684 38.5588 20.3824C37.9984 20.4964 37.3819 20.5534 36.7094 20.5534C35.4203 20.5534 34.2994 20.2114 33.4027 19.5274C32.562 18.8434 32.1137 17.8174 32.1137 16.5063V16.4493C32.1137 16.5063 35.9247 16.6203 36.4291 16.6203ZM33.8511 9.83732C34.3555 9.49532 34.9159 9.21031 35.5324 9.03931C36.1489 8.86831 36.8214 8.75431 37.55 8.75431C38.2786 8.75431 38.9511 8.92531 39.5676 9.26731C40.1281 9.60932 40.4083 10.1223 40.4083 10.9203C40.4083 11.3763 40.2962 11.7183 40.1281 12.0033C39.9039 12.2883 39.6797 12.5163 39.3435 12.6873C39.0072 12.8583 38.6149 12.9723 38.1665 13.0293C37.7182 13.0863 37.2698 13.1433 36.8214 13.1433C33.9071 12.9723 32.0576 13.0293 32.0576 13.0293C32.1697 11.6613 33.3467 10.1793 33.8511 9.83732Z" fill="#2D217F"/>
<path d="M16.7565 12.3463L13.0576 13.3153C12.273 10.1233 9.07841 8.24224 5.9399 9.04025L3.36183 9.78125L2.35303 6.01923L4.93109 5.33523C10.1433 3.96722 15.4115 7.10224 16.7565 12.3463Z" fill="#22CC9B"/>
<path d="M9.80817 24.373L7.23011 25.057L6.27734 21.295L8.85541 20.611C11.9939 19.813 13.8434 16.564 13.0588 13.372L16.7577 12.403C18.1028 17.59 15.0203 23.005 9.80817 24.373Z" fill="#22CC9B"/>
<path d="M8.68695 16.5636C5.88471 17.3046 2.97038 17.4756 0 16.9056L0.672538 13.0866C7.73419 14.3406 14.7958 10.8636 18.2146 4.42255L21.5773 6.24655C18.775 11.4906 14.0673 15.1386 8.68695 16.5636Z" fill="#22CC9B"/>
</svg>
